<svg xmlns="http://www.w3.org/2000/svg" width="25" height="36" viewBox="0 0 25 36"><path d="M8,12 9,12 9,13 8,13 M7,12 8,12 8,13 7,13 M7,13 8,13 8,14 7,14 M8,13 9,13 9,14 8,14 M9,13 10,13 10,14 9,14 M9,14 10,14 10,15 9,15 M9,15 10,15 10,16 9,16 M9,16 10,16 10,17 9,17 M8,16 9,16 9,17 8,17 M7,16 8,16 8,17 7,17 M6,16 7,16 7,17 6,17 M5,16 6,16 6,17 5,17 M5,15 6,15 6,16 5,16 M5,14 6,14 6,15 5,15 M6,15 7,15 7,16 6,16 M7,15 8,15 8,16 7,16 M8,15 9,15 9,16 8,16 M8,14 9,14 9,15 8,15 M7,14 8,14 8,15 7,15 M6,14 7,14 7,15 6,15 M5,13 6,13 6,14 5,14 M6,13 7,13 7,14 6,14 " fill="#313244"></path><path d="M5,31 6,31 6,32 5,32 M6,32 7,32 7,33 6,33 M7,33 8,33 8,34 7,34 M8,33 9,33 9,34 8,34 M9,33 10,33 10,34 9,34 M10,33 11,33 11,34 10,34 M11,33 12,33 12,34 11,34 M12,33 13,33 13,34 12,34 M13,33 14,33 14,34 13,34 M14,33 15,33 15,34 14,34 M15,33 16,33 16,34 15,34 M18,32 19,32 19,33 18,33 M5,27 6,27 6,28 5,28 M19,31 20,31 20,32 19,32 M19,30 20,30 20,31 19,31 M19,29 20,29 20,30 19,30 M19,28 20,28 20,29 19,29 M19,27 20,27 20,28 19,28 M5,26 6,26 6,27 5,27 M5,25 6,25 6,26 5,26 M5,24 6,24 6,25 5,25 M5,23 6,23 6,24 5,24 M5,22 6,22 6,23 5,23 M19,26 20,26 20,27 19,27 M19,25 20,25 20,26 19,26 M19,24 20,24 20,25 19,25 M19,23 20,23 20,24 19,24 M19,22 20,22 20,23 19,23 M19,21 20,21 20,22 19,22 M19,20 20,20 20,21 19,21 M19,19 20,19 20,20 19,20 M19,18 20,18 20,19 19,19 M19,17 20,17 20,18 19,18 M5,21 6,21 6,22 5,22 M5,20 6,20 6,21 5,21 M5,19 6,19 6,20 5,20 M5,18 6,18 6,19 5,19 M5,17 6,17 6,18 5,18 M18,12 19,12 19,13 18,13 M20,16 21,16 21,17 20,17 M20,15 21,15 21,16 20,16 M20,14 21,14 21,15 20,15 M20,13 21,13 21,14 20,14 M19,12 20,12 20,13 19,13 M17,11 18,11 18,12 17,12 M16,11 17,11 17,12 16,12 M15,11 16,11 16,12 15,12 M14,11 15,11 15,12 14,12 M13,11 14,11 14,12 13,12 M4,16 5,16 5,17 4,17 M4,15 5,15 5,16 4,16 M4,14 5,14 5,15 4,15 M4,13 5,13 5,14 4,14 M5,12 6,12 6,13 5,13 M6,12 7,12 7,13 6,13 M9,11 10,11 10,12 9,12 M10,11 11,11 11,12 10,12 M7,11 8,11 8,12 7,12 M8,11 9,11 9,12 8,12 M13,23 14,23 14,24 13,24 M12,23 13,23 13,24 12,24 M11,23 12,23 12,24 11,24 M12,24 13,24 13,25 12,25 M12,25 13,25 13,26 12,26 M9,10 10,10 10,11 9,11 M8,9 9,9 9,10 8,10 M8,8 9,8 9,9 8,9 M8,7 9,7 9,8 8,8 M8,6 9,6 9,7 8,7 M9,5 10,5 10,6 9,6 M10,4 11,4 11,5 10,5 M11,4 12,4 12,5 11,5 M12,4 13,4 13,5 12,5 M13,4 14,4 14,5 13,5 M14,4 15,4 15,5 14,5 M15,4 16,4 16,5 15,5 M16,5 17,5 17,6 16,6 M16,6 17,6 17,7 16,7 M16,7 17,7 17,8 16,8 M16,8 17,8 17,9 16,9 M14,9 15,9 15,10 14,10 M13,9 14,9 14,10 13,10 M12,9 13,9 13,10 12,10 M11,8 12,8 12,9 11,9 M11,7 12,7 12,8 11,8 M13,7 14,7 14,8 13,8 M14,7 15,7 15,8 14,8 M12,6 13,6 13,7 12,7 M11,6 12,6 12,7 11,7 M13,6 14,6 14,7 13,7 M14,6 15,6 15,7 14,7 M10,7 11,7 11,8 10,8 M10,8 11,8 11,9 10,9 M11,9 12,9 12,10 11,10 M15,9 16,9 16,10 15,10 M12,10 13,10 13,11 12,11 M16,33 17,33 17,34 16,34 M17,33 18,33 18,34 17,34 M5,28 6,28 6,29 5,29 M5,29 6,29 6,30 5,30 M5,30 6,30 6,31 5,31 " fill="#000000"></path><path d="M14,25 15,25 15,26 14,26 M13,25 14,25 14,26 13,26 M16,25 17,25 17,26 16,26 M16,23 17,23 17,24 16,24 M14,23 15,23 15,24 14,24 M14,24 15,24 15,25 14,25 M13,24 14,24 14,25 13,25 M4,18 5,18 5,19 4,19 M4,19 5,19 5,20 4,20 M4,20 5,20 5,21 4,21 M4,21 5,21 5,22 4,22 M4,22 5,22 5,23 4,23 M4,23 5,23 5,24 4,24 M4,24 5,24 5,25 4,25 M4,25 5,25 5,26 4,26 M4,26 5,26 5,27 4,27 M4,27 5,27 5,28 4,28 M4,28 5,28 5,29 4,29 M4,29 5,29 5,30 4,30 M4,30 5,30 5,31 4,31 M4,31 5,31 5,32 4,32 M5,32 6,32 6,33 5,33 M6,33 7,33 7,34 6,34 M7,34 8,34 8,35 7,35 M8,34 9,34 9,35 8,35 M9,34 10,34 10,35 9,35 M10,34 11,34 11,35 10,35 M11,34 12,34 12,35 11,35 M12,34 13,34 13,35 12,35 M13,34 14,34 14,35 13,35 M14,34 15,34 15,35 14,35 M15,34 16,34 16,35 15,35 M16,34 17,34 17,35 16,35 M17,34 18,34 18,35 17,35 M18,33 19,33 19,34 18,34 M19,32 20,32 20,33 19,33 M20,31 21,31 21,32 20,32 M20,30 21,30 21,31 20,31 M20,29 21,29 21,30 20,30 M20,28 21,28 21,29 20,29 M20,27 21,27 21,28 20,28 M20,26 21,26 21,27 20,27 M20,25 21,25 21,26 20,26 M20,24 21,24 21,25 20,25 M20,23 21,23 21,24 20,24 M20,22 21,22 21,23 20,23 M20,21 21,21 21,22 20,22 M20,20 21,20 21,21 20,21 M20,19 21,19 21,20 20,20 M20,18 21,18 21,19 20,19 M20,17 21,17 21,18 20,18 M21,16 22,16 22,17 21,17 M21,15 22,15 22,16 21,16 M21,14 22,14 22,15 21,15 M21,13 22,13 22,14 21,14 M20,12 21,12 21,13 20,13 M19,11 20,11 20,12 19,12 M18,11 19,11 19,12 18,12 M16,10 17,10 17,11 16,11 M15,10 16,10 16,11 15,11 M14,10 15,10 15,11 14,11 M13,10 14,10 14,11 13,11 M17,10 18,10 18,11 17,11 M16,9 17,9 17,10 16,10 M17,8 18,8 18,9 17,9 M17,7 18,7 18,8 17,8 M17,6 18,6 18,7 17,7 M17,5 18,5 18,6 17,6 M16,4 17,4 17,5 16,5 M15,3 16,3 16,4 15,4 M14,3 15,3 15,4 14,4 M13,3 14,3 14,4 13,4 M12,3 13,3 13,4 12,4 M11,3 12,3 12,4 11,4 M10,3 11,3 11,4 10,4 M9,4 10,4 10,5 9,5 M8,5 9,5 9,6 8,6 M7,6 8,6 8,7 7,7 M7,7 8,7 8,8 7,8 M7,8 8,8 8,9 7,9 M7,9 8,9 8,10 7,10 M8,10 9,10 9,11 8,11 M7,10 8,10 8,11 7,11 M6,11 7,11 7,12 6,12 M5,11 6,11 6,12 5,12 M4,12 5,12 5,13 4,13 M3,13 4,13 4,14 3,14 M3,14 4,14 4,15 3,15 M3,15 4,15 4,16 3,16 M3,16 4,16 4,17 3,17 M4,17 5,17 5,18 4,18 " fill="#ffffff"></path><path d="M6,26 7,26 7,27 6,27 M6,25 7,25 7,26 6,26 M6,24 7,24 7,25 6,25 M6,23 7,23 7,24 6,24 M6,22 7,22 7,23 6,23 M7,22 8,22 8,23 7,23 M8,22 9,22 9,23 8,23 M9,22 10,22 10,23 9,23 M9,23 10,23 10,24 9,24 M8,25 9,25 9,26 8,26 M8,26 9,26 9,27 8,27 M9,26 10,26 10,27 9,27 M9,25 10,25 10,26 9,26 M9,24 10,24 10,25 9,25 M8,24 9,24 9,25 8,25 M8,23 9,23 9,24 8,24 M7,23 8,23 8,24 7,24 M7,24 8,24 8,25 7,25 M7,26 8,26 8,27 7,27 M7,25 8,25 8,26 7,26 M16,15 17,15 17,16 16,16 M16,14 17,14 17,15 16,15 M15,13 16,13 16,14 15,14 " fill="#b8b5b9"></path><path d="M11,10 12,10 12,11 11,11 M10,9 11,9 11,10 10,10 M9,8 10,8 10,9 9,9 M9,6 10,6 10,7 9,7 M10,5 11,5 11,6 10,6 M12,5 13,5 13,6 12,6 M14,5 15,5 15,6 14,6 M15,6 16,6 16,7 15,7 M15,8 16,8 16,9 15,9 M13,8 14,8 14,9 13,9 M12,7 13,7 13,8 12,8 " fill="#b8b8ff"></path><path d="M12,11 13,11 13,12 12,12 M11,11 12,11 12,12 11,12 M10,10 11,10 11,11 10,11 M9,9 10,9 10,10 9,10 M9,7 10,7 10,8 9,8 M10,6 11,6 11,7 10,7 M11,5 12,5 12,6 11,6 M13,5 14,5 14,6 13,6 M15,5 16,5 16,6 15,6 M15,7 16,7 16,8 15,8 M14,8 15,8 15,9 14,9 M12,8 13,8 13,9 12,9 " fill="#9381ff"></path><path d="M9,31 10,31 10,32 9,32 M9,30 10,30 10,31 9,31 M9,29 10,29 10,30 9,30 M9,28 10,28 10,29 9,29 M9,27 10,27 10,28 9,28 M8,27 9,27 9,28 8,28 M7,27 8,27 8,28 7,28 M6,27 7,27 7,28 6,28 M6,28 7,28 7,29 6,29 M6,30 7,30 7,31 6,31 M6,29 7,29 7,30 6,30 M7,29 8,29 8,30 7,30 M7,30 8,30 8,31 7,31 M6,31 7,31 7,32 6,32 M7,31 8,31 8,32 7,32 M8,31 9,31 9,32 8,32 M8,30 9,30 9,31 8,31 M8,29 9,29 9,30 8,30 M8,28 9,28 9,29 8,29 M7,28 8,28 8,29 7,29 M9,21 10,21 10,22 9,22 M8,21 9,21 9,22 8,22 M7,21 8,21 8,22 7,22 M6,21 7,21 7,22 6,22 M6,20 7,20 7,21 6,21 M6,19 7,19 7,20 6,20 M6,18 7,18 7,19 6,19 M6,17 7,17 7,18 6,18 M7,17 8,17 8,18 7,18 M8,17 9,17 9,18 8,18 M8,18 9,18 9,19 8,19 M7,20 8,20 8,21 7,21 M7,18 8,18 8,19 7,19 M7,19 8,19 8,20 7,20 M8,19 9,19 9,20 8,20 M8,20 9,20 9,21 8,21 M9,20 10,20 10,21 9,21 M9,19 10,19 10,20 9,20 M9,18 10,18 10,19 9,19 M9,17 10,17 10,18 9,18 M10,17 11,17 11,18 10,18 M11,17 12,17 12,18 11,18 M12,17 13,17 13,18 12,18 M13,17 14,17 14,18 13,18 M14,17 15,17 15,18 14,18 M15,17 16,17 16,18 15,18 M16,17 17,17 17,18 16,18 M17,17 18,17 18,18 17,18 M18,17 19,17 19,18 18,18 M15,20 16,20 16,21 15,21 M16,21 17,21 17,22 16,22 M17,21 18,21 18,22 17,22 M18,21 19,21 19,22 18,22 M13,20 14,20 14,21 13,21 M12,20 13,20 13,21 12,21 M11,20 12,20 12,21 11,21 M11,21 12,21 12,22 11,22 M10,21 11,21 11,22 10,22 " fill="#72afa4"></path><path d="M7,32 8,32 8,33 7,33 M8,32 9,32 9,33 8,33 M9,32 10,32 10,33 9,33 M10,32 11,32 11,33 10,33 M11,32 12,32 12,33 11,33 M12,32 13,32 13,33 12,33 M13,32 14,32 14,33 13,33 M14,32 15,32 15,33 14,33 M15,32 16,32 16,33 15,33 M16,32 17,32 17,33 16,33 M17,32 18,32 18,33 17,33 M14,30 15,30 15,31 14,31 M14,31 15,31 15,32 14,32 M15,31 16,31 16,32 15,32 M15,30 16,30 16,31 15,31 M12,29 13,29 13,30 12,30 M12,28 13,28 13,29 12,29 M13,28 14,28 14,29 13,29 M14,27 15,27 15,28 14,28 M15,27 16,27 16,28 15,28 M16,28 17,28 17,29 16,29 M17,28 18,28 18,29 17,29 M17,29 18,29 18,30 17,30 " fill="#61958c"></path><path d="M10,20 11,20 11,21 10,21 M10,19 11,19 11,20 10,20 M10,18 11,18 11,19 10,19 M11,18 12,18 12,19 11,19 M12,18 13,18 13,19 12,19 M13,18 14,18 14,19 13,19 M14,18 15,18 15,19 14,19 M15,18 16,18 16,19 15,19 M16,18 17,18 17,19 16,19 M17,18 18,18 18,19 17,19 M18,18 19,18 19,19 18,19 M18,19 19,19 19,20 18,20 M18,20 19,20 19,21 18,21 M17,20 18,20 18,21 17,21 M16,20 17,20 17,21 16,21 M17,19 18,19 18,20 17,20 M16,19 17,19 17,20 16,20 M15,19 16,19 16,20 15,20 M14,19 15,19 15,20 14,20 M13,19 14,19 14,20 13,20 M12,19 13,19 13,20 12,20 M11,19 12,19 12,20 11,20 M14,20 15,20 15,21 14,21 M15,21 16,21 16,22 15,22 M14,21 15,21 15,22 14,22 M13,21 14,21 14,22 13,22 M12,21 13,21 13,22 12,22 M13,27 14,27 14,28 13,28 M12,27 13,27 13,28 12,28 M11,27 12,27 12,28 11,28 M10,27 11,27 11,28 10,28 M10,28 11,28 11,29 10,29 M10,29 11,29 11,30 10,30 M11,28 12,28 12,29 11,29 M11,29 12,29 12,30 11,30 M11,30 12,30 12,31 11,31 M10,30 11,30 11,31 10,31 M10,31 11,31 11,32 10,32 M11,31 12,31 12,32 11,32 M12,31 13,31 13,32 12,32 M13,31 14,31 14,32 13,32 M12,30 13,30 13,31 12,31 M13,30 14,30 14,31 13,31 M13,29 14,29 14,30 13,30 M14,29 15,29 15,30 14,30 M14,28 15,28 15,29 14,29 M15,28 16,28 16,29 15,29 M15,29 16,29 16,30 15,30 M16,29 17,29 17,30 16,30 M16,30 17,30 17,31 16,31 M16,31 17,31 17,32 16,32 M18,31 19,31 19,32 18,32 M17,31 18,31 18,32 17,32 M17,30 18,30 18,31 17,31 M18,30 19,30 19,31 18,31 M18,29 19,29 19,30 18,30 M18,28 19,28 19,29 18,29 M18,27 19,27 19,28 18,28 M17,27 18,27 18,28 17,28 M16,27 17,27 17,28 16,28 " fill="#a6e3a1"></path><path d="M10,22 11,22 11,23 10,23 M11,22 12,22 12,23 11,23 M12,22 13,22 13,23 12,23 M13,22 14,22 14,23 13,23 M14,22 15,22 15,23 14,23 M15,22 16,22 16,23 15,23 M16,22 17,22 17,23 16,23 M17,22 18,22 18,23 17,23 M18,22 19,22 19,23 18,23 M18,23 19,23 19,24 18,24 M18,24 19,24 19,25 18,25 M18,25 19,25 19,26 18,26 M18,26 19,26 19,27 18,27 M17,26 18,26 18,27 17,27 M16,26 17,26 17,27 16,27 M15,26 16,26 16,27 15,27 M14,26 15,26 15,27 14,27 M13,26 14,26 14,27 13,27 M12,26 13,26 13,27 12,27 M11,26 12,26 12,27 11,27 M10,26 11,26 11,27 10,27 M10,25 11,25 11,26 10,26 M10,23 11,23 11,24 10,24 M10,24 11,24 11,25 10,25 M11,24 12,24 12,25 11,25 M11,25 12,25 12,26 11,26 " fill="#f5f7ff"></path><path d="M15,23 16,23 16,24 15,24 M15,24 16,24 16,25 15,25 M15,25 16,25 16,26 15,26 M16,24 17,24 17,25 16,25 M17,23 18,23 18,24 17,24 M17,24 18,24 18,25 17,25 M17,25 18,25 18,26 17,26 " fill="#fab387"></path><path d="M19,16 20,16 20,17 19,17 M18,16 19,16 19,17 18,17 M17,16 18,16 18,17 17,17 M16,16 17,16 17,17 16,17 M15,16 16,16 16,17 15,17 M14,16 15,16 15,17 14,17 M13,16 14,16 14,17 13,17 M12,16 13,16 13,17 12,17 M11,16 12,16 12,17 11,17 M10,16 11,16 11,17 10,17 M10,15 11,15 11,16 10,16 M10,14 11,14 11,15 10,15 M10,13 11,13 11,14 10,14 M9,12 10,12 10,13 9,13 M10,12 11,12 11,13 10,13 M11,12 12,12 12,13 11,13 M12,12 13,12 13,13 12,13 M13,12 14,12 14,13 13,13 M14,12 15,12 15,13 14,13 M15,12 16,12 16,13 15,13 M16,12 17,12 17,13 16,13 M17,12 18,12 18,13 17,13 M17,13 18,13 18,14 17,14 M18,13 19,13 19,14 18,14 M19,13 20,13 20,14 19,14 M19,14 20,14 20,15 19,15 M19,15 20,15 20,16 19,16 M18,15 19,15 19,16 18,16 M17,15 18,15 18,16 17,16 M17,14 18,14 18,15 17,15 M18,14 19,14 19,15 18,15 M16,13 17,13 17,14 16,14 M14,13 15,13 15,14 14,14 M13,13 14,13 14,14 13,14 M12,13 13,13 13,14 12,14 M11,13 12,13 12,14 11,14 M11,14 12,14 12,15 11,15 M11,15 12,15 12,16 11,16 M12,15 13,15 13,16 12,16 M13,15 14,15 14,16 13,16 M14,15 15,15 15,16 14,16 M15,15 16,15 16,16 15,16 M15,14 16,14 16,15 15,15 M14,14 15,14 15,15 14,15 M13,14 14,14 14,15 13,15 M12,14 13,14 13,15 12,15 " fill="#1e1e2e"></path></svg>